<svg xmlns="http://www.w3.org/2000/svg" width="24" height="24" viewBox="0 0 24 24">
    <defs>
        <clipPath id="2nh1w5j03a">
            <path data-name="Rectangle 64" transform="translate(633 68)" style="fill:#fff;stroke:#707070" d="M0 0h24v24H0z"/>
        </clipPath>
    </defs>
    <g data-name="Mask Group 24" transform="translate(-633 -68)" style="clip-path:url(#2nh1w5j03a)">
        <g data-name="Group 1260">
            <path data-name="Path 2124" d="M2711.239 717.5h-7.205a2.74 2.74 0 0 1-2.942-2.934v-14.562a2.732 2.732 0 0 1 2.92-2.906h14.558a2.731 2.731 0 0 1 2.918 2.909v14.61a2.727 2.727 0 0 1-2.9 2.882q-3.673.007-7.349.001zm8.638-6.455a1.8 1.8 0 0 0 .038-.218v-10.936a1.165 1.165 0 0 0-1.335-1.222h-14.561a1.191 1.191 0 0 0-1.357 1.35v11.476c0 .12.019.241.034.424l.575-.478c1.124-.949 2.242-1.9 3.372-2.845a2.081 2.081 0 0 1 2.992.128c.768.757 1.536 1.516 2.286 2.291a.642.642 0 0 0 .981.079c.73-.551 1.478-1.08 2.219-1.615a2.11 2.11 0 0 1 2.864.062zm-8.586 4.884h7.3a1.184 1.184 0 0 0 1.324-1.332 9.955 9.955 0 0 0-.011-1.126.924.924 0 0 0-.258-.57c-.875-.735-1.781-1.434-2.665-2.159a.663.663 0 0 0-.959 0c-.712.574-1.441 1.128-2.166 1.684a2.1 2.1 0 0 1-2.991-.2c-.736-.742-1.464-1.494-2.2-2.24-.456-.463-.635-.475-1.115-.072q-2.31 1.935-4.619 3.873a.789.789 0 0 0-.257.281 1.354 1.354 0 0 0 1.308 1.867q3.656 0 7.308-.005z" transform="translate(-2066.289 -627.3)" style="fill:#797979"/>
            <path data-name="Path 2125" d="M2736.739 715.978a2.868 2.868 0 1 1 2.887-2.834 2.845 2.845 0 0 1-2.887 2.834zm1.315-2.866a1.293 1.293 0 1 0-1.308 1.291 1.272 1.272 0 0 0 1.308-1.291z" transform="translate(-2088.622 -636.249)" style="fill:#797979"/>
        </g>
    </g>
</svg>
